<mxfile host="65bd71144e">
    <diagram id="nvyOU2zy41VuWUPARuF2" name="Page-1">
        <mxGraphModel dx="1410" dy="540" grid="1" gridSize="10" guides="1" tooltips="1" connect="1" arrows="1" fold="1" page="1" pageScale="1" pageWidth="850" pageHeight="1100" math="0" shadow="0">
            <root>
                <mxCell id="0"/>
                <mxCell id="1" parent="0"/>
                <mxCell id="56" value="Loop each item" style="shape=umlFrame;whiteSpace=wrap;html=1;" vertex="1" parent="1">
                    <mxGeometry x="160" y="830" width="450" height="70" as="geometry"/>
                </mxCell>
                <mxCell id="17" style="edgeStyle=none;html=1;fontSize=18;endArrow=block;endFill=0;" edge="1" parent="1" source="2" target="10">
                    <mxGeometry relative="1" as="geometry"/>
                </mxCell>
                <mxCell id="2" value="Path" style="swimlane;fontStyle=1;align=center;verticalAlign=top;childLayout=stackLayout;horizontal=1;startSize=26;horizontalStack=0;resizeParent=1;resizeParentMax=0;resizeLast=0;collapsible=1;marginBottom=0;" vertex="1" parent="1">
                    <mxGeometry x="310" y="210" width="400" height="180" as="geometry"/>
                </mxCell>
                <mxCell id="3" value="- _source: Location&#10;- _destination: Location&#10;- _isBlocked: bool" style="text;strokeColor=none;fillColor=none;align=left;verticalAlign=top;spacingLeft=4;spacingRight=4;overflow=hidden;rotatable=0;points=[[0,0.5],[1,0.5]];portConstraint=eastwest;" vertex="1" parent="2">
                    <mxGeometry y="26" width="400" height="54" as="geometry"/>
                </mxCell>
                <mxCell id="4" value="" style="line;strokeWidth=1;fillColor=none;align=left;verticalAlign=middle;spacingTop=-1;spacingLeft=3;spacingRight=3;rotatable=0;labelPosition=right;points=[];portConstraint=eastwest;strokeColor=inherit;" vertex="1" parent="2">
                    <mxGeometry y="80" width="400" height="8" as="geometry"/>
                </mxCell>
                <mxCell id="5" value="+ Path(string[] ids, string name, string desc, Location src, Location des)&#10;&#10;+ IsBlocked(): bool &lt;&lt;property&gt;&gt;&#10;+ Source: Location &lt;&lt;property&gt;&gt;&#10;+ Destination: Location &lt;&lt;property&gt;&gt;&#10;" style="text;strokeColor=none;fillColor=none;align=left;verticalAlign=top;spacingLeft=4;spacingRight=4;overflow=hidden;rotatable=0;points=[[0,0.5],[1,0.5]];portConstraint=eastwest;" vertex="1" parent="2">
                    <mxGeometry y="88" width="400" height="92" as="geometry"/>
                </mxCell>
                <mxCell id="15" style="edgeStyle=none;html=1;entryX=0;entryY=0.5;entryDx=0;entryDy=0;endArrow=diamondThin;endFill=0;" edge="1" parent="1" source="6" target="3">
                    <mxGeometry relative="1" as="geometry"/>
                </mxCell>
                <mxCell id="16" value="&lt;font style=&quot;font-size: 18px;&quot;&gt;2&lt;/font&gt;" style="edgeLabel;html=1;align=center;verticalAlign=middle;resizable=0;points=[];" vertex="1" connectable="0" parent="15">
                    <mxGeometry x="-0.6963" y="2" relative="1" as="geometry">
                        <mxPoint x="-4" y="-11" as="offset"/>
                    </mxGeometry>
                </mxCell>
                <mxCell id="6" value="Location" style="swimlane;fontStyle=1;align=center;verticalAlign=top;childLayout=stackLayout;horizontal=1;startSize=26;horizontalStack=0;resizeParent=1;resizeParentMax=0;resizeLast=0;collapsible=1;marginBottom=0;" vertex="1" collapsed="1" parent="1">
                    <mxGeometry x="120" y="248" width="100" height="30" as="geometry">
                        <mxRectangle x="290" y="40" width="160" height="86" as="alternateBounds"/>
                    </mxGeometry>
                </mxCell>
                <mxCell id="7" value="+ field: type" style="text;strokeColor=none;fillColor=none;align=left;verticalAlign=top;spacingLeft=4;spacingRight=4;overflow=hidden;rotatable=0;points=[[0,0.5],[1,0.5]];portConstraint=eastwest;" vertex="1" parent="6">
                    <mxGeometry y="26" width="160" height="26" as="geometry"/>
                </mxCell>
                <mxCell id="8" value="" style="line;strokeWidth=1;fillColor=none;align=left;verticalAlign=middle;spacingTop=-1;spacingLeft=3;spacingRight=3;rotatable=0;labelPosition=right;points=[];portConstraint=eastwest;strokeColor=inherit;" vertex="1" parent="6">
                    <mxGeometry y="52" width="160" height="8" as="geometry"/>
                </mxCell>
                <mxCell id="9" value="+ method(type): type" style="text;strokeColor=none;fillColor=none;align=left;verticalAlign=top;spacingLeft=4;spacingRight=4;overflow=hidden;rotatable=0;points=[[0,0.5],[1,0.5]];portConstraint=eastwest;" vertex="1" parent="6">
                    <mxGeometry y="60" width="160" height="26" as="geometry"/>
                </mxCell>
                <mxCell id="10" value="GameObject" style="swimlane;fontStyle=1;align=center;verticalAlign=top;childLayout=stackLayout;horizontal=1;startSize=26;horizontalStack=0;resizeParent=1;resizeParentMax=0;resizeLast=0;collapsible=1;marginBottom=0;" vertex="1" collapsed="1" parent="1">
                    <mxGeometry x="460" y="50" width="100" height="30" as="geometry">
                        <mxRectangle x="290" y="40" width="160" height="86" as="alternateBounds"/>
                    </mxGeometry>
                </mxCell>
                <mxCell id="11" value="+ field: type" style="text;strokeColor=none;fillColor=none;align=left;verticalAlign=top;spacingLeft=4;spacingRight=4;overflow=hidden;rotatable=0;points=[[0,0.5],[1,0.5]];portConstraint=eastwest;" vertex="1" parent="10">
                    <mxGeometry y="26" width="160" height="26" as="geometry"/>
                </mxCell>
                <mxCell id="12" value="" style="line;strokeWidth=1;fillColor=none;align=left;verticalAlign=middle;spacingTop=-1;spacingLeft=3;spacingRight=3;rotatable=0;labelPosition=right;points=[];portConstraint=eastwest;strokeColor=inherit;" vertex="1" parent="10">
                    <mxGeometry y="52" width="160" height="8" as="geometry"/>
                </mxCell>
                <mxCell id="13" value="+ method(type): type" style="text;strokeColor=none;fillColor=none;align=left;verticalAlign=top;spacingLeft=4;spacingRight=4;overflow=hidden;rotatable=0;points=[[0,0.5],[1,0.5]];portConstraint=eastwest;" vertex="1" parent="10">
                    <mxGeometry y="60" width="160" height="26" as="geometry"/>
                </mxCell>
                <mxCell id="34" style="edgeStyle=none;html=1;fontSize=18;endArrow=block;endFill=0;" edge="1" parent="1" source="22" target="30">
                    <mxGeometry relative="1" as="geometry"/>
                </mxCell>
                <mxCell id="22" value="MoveCommand" style="swimlane;fontStyle=1;align=center;verticalAlign=top;childLayout=stackLayout;horizontal=1;startSize=26;horizontalStack=0;resizeParent=1;resizeParentMax=0;resizeLast=0;collapsible=1;marginBottom=0;" vertex="1" parent="1">
                    <mxGeometry x="860" y="270" width="190" height="90" as="geometry"/>
                </mxCell>
                <mxCell id="24" value="" style="line;strokeWidth=1;fillColor=none;align=left;verticalAlign=middle;spacingTop=-1;spacingLeft=3;spacingRight=3;rotatable=0;labelPosition=right;points=[];portConstraint=eastwest;strokeColor=inherit;" vertex="1" parent="22">
                    <mxGeometry y="26" width="190" height="8" as="geometry"/>
                </mxCell>
                <mxCell id="25" value="+ MoveCommand()&#10;&#10;+ Execute(Player p, string[] text)" style="text;strokeColor=none;fillColor=none;align=left;verticalAlign=top;spacingLeft=4;spacingRight=4;overflow=hidden;rotatable=0;points=[[0,0.5],[1,0.5]];portConstraint=eastwest;" vertex="1" parent="22">
                    <mxGeometry y="34" width="190" height="56" as="geometry"/>
                </mxCell>
                <mxCell id="30" value="Command" style="swimlane;fontStyle=1;align=center;verticalAlign=top;childLayout=stackLayout;horizontal=1;startSize=26;horizontalStack=0;resizeParent=1;resizeParentMax=0;resizeLast=0;collapsible=1;marginBottom=0;" vertex="1" collapsed="1" parent="1">
                    <mxGeometry x="905" y="180" width="100" height="30" as="geometry">
                        <mxRectangle x="290" y="40" width="160" height="86" as="alternateBounds"/>
                    </mxGeometry>
                </mxCell>
                <mxCell id="31" value="+ field: type" style="text;strokeColor=none;fillColor=none;align=left;verticalAlign=top;spacingLeft=4;spacingRight=4;overflow=hidden;rotatable=0;points=[[0,0.5],[1,0.5]];portConstraint=eastwest;" vertex="1" parent="30">
                    <mxGeometry y="26" width="160" height="26" as="geometry"/>
                </mxCell>
                <mxCell id="32" value="" style="line;strokeWidth=1;fillColor=none;align=left;verticalAlign=middle;spacingTop=-1;spacingLeft=3;spacingRight=3;rotatable=0;labelPosition=right;points=[];portConstraint=eastwest;strokeColor=inherit;" vertex="1" parent="30">
                    <mxGeometry y="52" width="160" height="8" as="geometry"/>
                </mxCell>
                <mxCell id="33" value="+ method(type): type" style="text;strokeColor=none;fillColor=none;align=left;verticalAlign=top;spacingLeft=4;spacingRight=4;overflow=hidden;rotatable=0;points=[[0,0.5],[1,0.5]];portConstraint=eastwest;" vertex="1" parent="30">
                    <mxGeometry y="60" width="160" height="26" as="geometry"/>
                </mxCell>
                <mxCell id="35" value="p: Player" style="shape=umlLifeline;perimeter=lifelinePerimeter;whiteSpace=wrap;html=1;container=1;collapsible=0;recursiveResize=0;outlineConnect=0;" vertex="1" parent="1">
                    <mxGeometry x="190" y="640" width="100" height="410" as="geometry"/>
                </mxCell>
                <mxCell id="36" value="" style="html=1;points=[];perimeter=orthogonalPerimeter;" vertex="1" parent="35">
                    <mxGeometry x="40" y="80" width="20" height="310" as="geometry"/>
                </mxCell>
                <mxCell id="39" value="" style="html=1;points=[];perimeter=orthogonalPerimeter;" vertex="1" parent="35">
                    <mxGeometry x="50" y="120" width="20" height="20" as="geometry"/>
                </mxCell>
                <mxCell id="40" value="AreYou &quot;north&quot;" style="edgeStyle=orthogonalEdgeStyle;html=1;align=left;spacingLeft=2;endArrow=block;rounded=0;entryX=1;entryY=0;endSize=10;exitX=1.133;exitY=0.072;exitDx=0;exitDy=0;exitPerimeter=0;" edge="1" parent="35" source="36" target="39">
                    <mxGeometry x="-0.8101" y="10" relative="1" as="geometry">
                        <mxPoint x="65" y="100" as="sourcePoint"/>
                        <Array as="points">
                            <mxPoint x="95" y="100"/>
                            <mxPoint x="95" y="120"/>
                        </Array>
                        <mxPoint as="offset"/>
                    </mxGeometry>
                </mxCell>
                <mxCell id="41" value="False" style="edgeStyle=orthogonalEdgeStyle;html=1;align=left;spacingLeft=2;endArrow=block;rounded=0;endSize=10;exitX=1.133;exitY=0.072;exitDx=0;exitDy=0;exitPerimeter=0;dashed=1;" edge="1" parent="35">
                    <mxGeometry x="-0.1064" y="-2" relative="1" as="geometry">
                        <mxPoint x="70.00000000000006" y="129.9999999999999" as="sourcePoint"/>
                        <Array as="points">
                            <mxPoint x="102" y="130"/>
                            <mxPoint x="102" y="150"/>
                        </Array>
                        <mxPoint x="60" y="150" as="targetPoint"/>
                        <mxPoint as="offset"/>
                    </mxGeometry>
                </mxCell>
                <mxCell id="42" value="pi: Inventory" style="shape=umlLifeline;perimeter=lifelinePerimeter;whiteSpace=wrap;html=1;container=1;collapsible=0;recursiveResize=0;outlineConnect=0;" vertex="1" parent="1">
                    <mxGeometry x="360" y="640" width="100" height="410" as="geometry"/>
                </mxCell>
                <mxCell id="43" value="" style="html=1;points=[];perimeter=orthogonalPerimeter;" vertex="1" parent="42">
                    <mxGeometry x="40" y="180" width="20" height="100" as="geometry"/>
                </mxCell>
                <mxCell id="44" value=":Item" style="shape=umlLifeline;perimeter=lifelinePerimeter;whiteSpace=wrap;html=1;container=1;collapsible=0;recursiveResize=0;outlineConnect=0;" vertex="1" parent="1">
                    <mxGeometry x="530" y="640" width="100" height="410" as="geometry"/>
                </mxCell>
                <mxCell id="45" value="" style="html=1;points=[];perimeter=orthogonalPerimeter;" vertex="1" parent="44">
                    <mxGeometry x="40" y="210" width="20" height="40" as="geometry"/>
                </mxCell>
                <mxCell id="46" value="pl: Location" style="shape=umlLifeline;perimeter=lifelinePerimeter;whiteSpace=wrap;html=1;container=1;collapsible=0;recursiveResize=0;outlineConnect=0;" vertex="1" parent="1">
                    <mxGeometry x="710" y="640" width="100" height="410" as="geometry"/>
                </mxCell>
                <mxCell id="47" value="" style="html=1;points=[];perimeter=orthogonalPerimeter;" vertex="1" parent="46">
                    <mxGeometry x="40" y="300" width="20" height="100" as="geometry"/>
                </mxCell>
                <mxCell id="48" value="paths: List&amp;lt;Path&amp;gt;" style="shape=umlLifeline;perimeter=lifelinePerimeter;whiteSpace=wrap;html=1;container=1;collapsible=0;recursiveResize=0;outlineConnect=0;" vertex="1" parent="1">
                    <mxGeometry x="890" y="640" width="100" height="410" as="geometry"/>
                </mxCell>
                <mxCell id="49" value="" style="html=1;points=[];perimeter=orthogonalPerimeter;" vertex="1" parent="48">
                    <mxGeometry x="40" y="320" width="20" height="70" as="geometry"/>
                </mxCell>
                <mxCell id="50" value="east: Path" style="shape=umlLifeline;perimeter=lifelinePerimeter;whiteSpace=wrap;html=1;container=1;collapsible=0;recursiveResize=0;outlineConnect=0;" vertex="1" parent="1">
                    <mxGeometry x="1070" y="640" width="100" height="410" as="geometry"/>
                </mxCell>
                <mxCell id="51" value="" style="html=1;points=[];perimeter=orthogonalPerimeter;" vertex="1" parent="50">
                    <mxGeometry x="40" y="334" width="20" height="26" as="geometry"/>
                </mxCell>
                <mxCell id="52" value="Fetch &quot;north&quot;" style="html=1;verticalAlign=bottom;endArrow=block;entryX=0;entryY=0;endSize=10;exitX=1.1;exitY=0.324;exitDx=0;exitDy=0;exitPerimeter=0;" edge="1" parent="1" source="36" target="43">
                    <mxGeometry relative="1" as="geometry">
                        <mxPoint x="330" y="820" as="sourcePoint"/>
                    </mxGeometry>
                </mxCell>
                <mxCell id="53" value="null" style="html=1;verticalAlign=bottom;endArrow=open;dashed=1;endSize=8;exitX=0;exitY=0.95;entryX=1.1;entryY=0.634;entryDx=0;entryDy=0;entryPerimeter=0;" edge="1" parent="1" source="43" target="36">
                    <mxGeometry x="0.0716" y="15" relative="1" as="geometry">
                        <mxPoint x="330" y="896" as="targetPoint"/>
                        <mxPoint as="offset"/>
                    </mxGeometry>
                </mxCell>
                <mxCell id="54" value="AreYou &quot;north&quot;" style="html=1;verticalAlign=bottom;endArrow=block;entryX=0;entryY=0;endSize=10;exitX=1.167;exitY=0.306;exitDx=0;exitDy=0;exitPerimeter=0;" edge="1" parent="1" source="43" target="45">
                    <mxGeometry relative="1" as="geometry">
                        <mxPoint x="470" y="830" as="sourcePoint"/>
                    </mxGeometry>
                </mxCell>
                <mxCell id="55" value="False" style="html=1;verticalAlign=bottom;endArrow=open;dashed=1;endSize=8;exitX=0;exitY=0.95;entryX=1.167;entryY=0.683;entryDx=0;entryDy=0;entryPerimeter=0;" edge="1" parent="1" source="45" target="43">
                    <mxGeometry relative="1" as="geometry">
                        <mxPoint x="470" y="906" as="targetPoint"/>
                    </mxGeometry>
                </mxCell>
                <mxCell id="57" value="Locate &quot;north&quot;" style="html=1;verticalAlign=bottom;endArrow=block;entryX=0;entryY=0;endSize=10;exitX=1.072;exitY=0.71;exitDx=0;exitDy=0;exitPerimeter=0;" edge="1" parent="1" source="36" target="47">
                    <mxGeometry relative="1" as="geometry">
                        <mxPoint x="680" y="940" as="sourcePoint"/>
                    </mxGeometry>
                </mxCell>
                <mxCell id="58" value="Locate &quot;north&quot;" style="html=1;verticalAlign=bottom;endArrow=block;entryX=0;entryY=0;endSize=10;" edge="1" parent="1" source="47" target="49">
                    <mxGeometry relative="1" as="geometry">
                        <mxPoint x="820" y="940" as="sourcePoint"/>
                    </mxGeometry>
                </mxCell>
                <mxCell id="59" value="AreYou &quot;north&quot;" style="html=1;verticalAlign=bottom;endArrow=block;entryX=0;entryY=0;endSize=10;exitX=1.181;exitY=0.19;exitDx=0;exitDy=0;exitPerimeter=0;" edge="1" parent="1" source="49" target="51">
                    <mxGeometry relative="1" as="geometry">
                        <mxPoint x="954" y="974" as="sourcePoint"/>
                    </mxGeometry>
                </mxCell>
                <mxCell id="60" value="False" style="html=1;verticalAlign=bottom;endArrow=open;dashed=1;endSize=8;exitX=0;exitY=0.95;" edge="1" parent="1" source="51" target="49">
                    <mxGeometry relative="1" as="geometry">
                        <mxPoint x="1040" y="1050" as="targetPoint"/>
                    </mxGeometry>
                </mxCell>
                <mxCell id="61" value="north" style="html=1;verticalAlign=bottom;endArrow=open;dashed=1;endSize=8;exitX=0;exitY=0.95;entryX=1.1;entryY=0.833;entryDx=0;entryDy=0;entryPerimeter=0;" edge="1" parent="1" source="49" target="47">
                    <mxGeometry x="-0.0002" relative="1" as="geometry">
                        <mxPoint x="820" y="1016" as="targetPoint"/>
                        <mxPoint as="offset"/>
                    </mxGeometry>
                </mxCell>
                <mxCell id="62" value="north" style="html=1;verticalAlign=bottom;endArrow=open;dashed=1;endSize=8;exitX=0;exitY=0.95;entryX=1.117;entryY=0.985;entryDx=0;entryDy=0;entryPerimeter=0;" edge="1" parent="1" source="47" target="36">
                    <mxGeometry relative="1" as="geometry">
                        <mxPoint x="680" y="1016" as="targetPoint"/>
                    </mxGeometry>
                </mxCell>
                <mxCell id="63" value="move: MoveCommand" style="shape=umlLifeline;perimeter=lifelinePerimeter;whiteSpace=wrap;html=1;container=1;collapsible=0;recursiveResize=0;outlineConnect=0;" vertex="1" parent="1">
                    <mxGeometry y="640" width="100" height="440" as="geometry"/>
                </mxCell>
                <mxCell id="64" value="" style="html=1;points=[];perimeter=orthogonalPerimeter;" vertex="1" parent="63">
                    <mxGeometry x="40" y="60" width="20" height="350" as="geometry"/>
                </mxCell>
                <mxCell id="65" value="Move &quot;north&quot;" style="html=1;verticalAlign=bottom;endArrow=block;entryX=0;entryY=0;endSize=10;" edge="1" parent="63" target="64">
                    <mxGeometry relative="1" as="geometry">
                        <mxPoint x="-100" y="60" as="sourcePoint"/>
                    </mxGeometry>
                </mxCell>
                <mxCell id="66" value="Return success message" style="html=1;verticalAlign=bottom;endArrow=open;dashed=1;endSize=8;exitX=0;exitY=0.95;" edge="1" parent="63" source="64">
                    <mxGeometry relative="1" as="geometry">
                        <mxPoint x="-110" y="392" as="targetPoint"/>
                    </mxGeometry>
                </mxCell>
                <mxCell id="37" value="Locate &quot;north&quot;" style="html=1;verticalAlign=bottom;endArrow=block;entryX=0;entryY=0;endSize=10;exitX=1.005;exitY=0.058;exitDx=0;exitDy=0;exitPerimeter=0;" edge="1" parent="1" target="36" source="64">
                    <mxGeometry relative="1" as="geometry">
                        <mxPoint x="100" y="720" as="sourcePoint"/>
                    </mxGeometry>
                </mxCell>
                <mxCell id="71" value="north: Path" style="shape=umlLifeline;perimeter=lifelinePerimeter;whiteSpace=wrap;html=1;container=1;collapsible=0;recursiveResize=0;outlineConnect=0;" vertex="1" parent="1">
                    <mxGeometry x="1230" y="640" width="100" height="410" as="geometry"/>
                </mxCell>
                <mxCell id="73" value="" style="html=1;points=[];perimeter=orthogonalPerimeter;" vertex="1" parent="71">
                    <mxGeometry x="40" y="370.7" width="20" height="19.3" as="geometry"/>
                </mxCell>
                <mxCell id="74" value="AreYou &quot;north&quot;" style="html=1;verticalAlign=bottom;endArrow=block;entryX=0;entryY=0;endSize=10;exitX=1.097;exitY=0.722;exitDx=0;exitDy=0;exitPerimeter=0;" edge="1" parent="1" target="73" source="49">
                    <mxGeometry x="0.5598" y="1" relative="1" as="geometry">
                        <mxPoint x="1113.6200000000003" y="1010.0000000000002" as="sourcePoint"/>
                        <mxPoint as="offset"/>
                    </mxGeometry>
                </mxCell>
                <mxCell id="75" value="True" style="html=1;verticalAlign=bottom;endArrow=open;dashed=1;endSize=8;exitX=0;exitY=0.95;entryX=1.097;entryY=1;entryDx=0;entryDy=0;entryPerimeter=0;" edge="1" parent="1" source="73" target="49">
                    <mxGeometry relative="1" as="geometry">
                        <mxPoint x="1110" y="1030" as="targetPoint"/>
                    </mxGeometry>
                </mxCell>
                <mxCell id="38" value="gem" style="html=1;verticalAlign=bottom;endArrow=open;dashed=1;endSize=8;exitX=-0.183;exitY=0.892;entryX=1.05;entryY=0.844;entryDx=0;entryDy=0;entryPerimeter=0;exitDx=0;exitDy=0;exitPerimeter=0;" edge="1" parent="1" source="36" target="64">
                    <mxGeometry relative="1" as="geometry">
                        <mxPoint x="100" y="1014" as="targetPoint"/>
                    </mxGeometry>
                </mxCell>
                <mxCell id="77" value="Change player location to &quot;north&quot;" style="html=1;verticalAlign=bottom;endArrow=block;entryX=0;entryY=0;endSize=10;exitX=1.005;exitY=0.058;exitDx=0;exitDy=0;exitPerimeter=0;" edge="1" parent="1">
                    <mxGeometry relative="1" as="geometry">
                        <mxPoint x="59.99999999999991" y="1020.3" as="sourcePoint"/>
                        <mxPoint x="229.9" y="1020" as="targetPoint"/>
                    </mxGeometry>
                </mxCell>
            </root>
        </mxGraphModel>
    </diagram>
</mxfile>